<?xml version="1.0"?>
<svg xmlns="http://www.w3.org/2000/svg" id="Ebene_1" data-name="Ebene 1" version="1.1" viewBox="0 0 236.4 47.6" width="159" height="32"><defs><style>.cls-1{fill:#d43049;fill-rule:evenodd;stroke-width:0}.cls-2{stroke-width:0;fill:#2655ab}</style></defs><path d="M0 0h13.3v13.3H0zM0 16.2h13.3v13.3H0zM0 32.1h13.3v13.3H0z" class="cls-2"/><path d="m14.6 27 4.5-12.5 12.5 4.6-4.5 12.5M14.6 43l4.5-12.5 12.5 4.6-4.5 12.5M30.6 27l4.5-12.5 12.5 4.6-4.5 12.5M30.6 43l4.5-12.5 12.5 4.6-4.5 12.5M46.5 27l4.6-12.5 12.5 4.6L59 31.6M46.5 43l4.6-12.5 12.5 4.6L59 47.6" class="cls-1"/><path d="M16 .2h13.3v13.3H16zM32 .2h13.3v13.3H32zM48.2.2h13.3v13.3H48.2zM68.3 0h23.5c6.1 0 8.1 2.3 8.1 5.9s-3.7 5.8-7.5 6c3.9.4 7.7.8 7.7 5.6s-2 6.2-8.7 6.2H68.3zm12.2 9.7h4.7c1.9 0 2.4-.7 2.4-1.7s-.6-1.7-2.3-1.7h-4.8zm0 8.6h4.9c1.9 0 2.4-.7 2.4-1.7s-.5-1.7-2.3-1.7h-5v3.5ZM102.5 0h22.9c5.5 0 8.7 2.5 8.7 7s-3.7 6.6-7.5 6.9l8.4 9.8h-14.5l-5.7-7.6v7.6h-12.2V0Zm12.2 11.3h3.8c2.8 0 3.4-.9 3.4-2.7s-1-2.1-3.2-2.1h-4zM144.3 0h19.4l7.8 23.7h-12.6l-.8-3H150l-.9 3h-12.5zm9.7 5.6h-.1l-2.5 8.7h5.3l-2.6-8.7ZM201.2 15.5c0 7.6-7.3 8.9-14.6 8.9s-14.7-1.4-14.7-8.9V0h12.2v14.8c0 2.2 1.4 2.7 2.6 2.7s2.5-.4 2.5-2.7V0h11.9v15.5ZM204.7 0H217l7 9.9V0h11.5v23.7h-10.8l-8.5-10.8v10.8h-11.5zM70.1 44.3h3.3v1.2h-4.6V33.7h1.3zM86.4 39.6c0 3.4-2.8 6.1-6.2 6.1S74 43 74 39.6s2.8-6.1 6.2-6.1 6.2 2.7 6.2 6.1m-11 0c0 2.7 2.2 4.9 4.9 4.9s4.9-2.2 4.9-4.9-2.1-4.9-4.9-4.9-4.9 2.2-4.9 4.9M91.4 45.5h-1.3V34.9h-2.9v-1.2h7.1v1.2h-2.9zM98.7 45.5h-1.3V34.9h-2.9v-1.2h7.1v1.2h-2.9zM114.7 39.6c0 3.4-2.8 6.1-6.2 6.1s-6.2-2.7-6.2-6.1 2.8-6.1 6.2-6.1 6.2 2.7 6.2 6.1m-11 0c0 2.7 2.2 4.9 4.9 4.9s4.9-2.2 4.9-4.9-2.1-4.9-4.9-4.9-4.9 2.2-4.9 4.9M118.6 41.1v1.2h-3.2v-1.2zM125.2 36c-.5-.8-1-1.3-2-1.3s-2 .7-2 1.8 1.1 1.5 1.9 1.8l.8.3c1.5.7 2.8 1.4 2.8 3.3s-1.7 3.6-3.7 3.6-3.3-1.2-3.7-3l1.3-.4c.2 1.2 1.1 2.2 2.4 2.2s2.4-1 2.4-2.3-1.1-1.8-2.2-2.3l-.7-.3c-1.4-.6-2.6-1.3-2.6-3s1.6-3 3.3-3 2.4.7 3.1 1.8l-1.1.7ZM127.5 33.7h1.5l3 5.2 3-5.2h1.5l-3.9 6.7v5.1h-1.3v-5.1l-3.9-6.7ZM143.3 36c-.5-.8-1-1.3-2-1.3s-2 .7-2 1.8 1.1 1.5 1.9 1.8l.8.3c1.5.7 2.8 1.4 2.8 3.3s-1.7 3.6-3.7 3.6-3.3-1.2-3.7-3l1.3-.4c.2 1.2 1.1 2.2 2.4 2.2s2.4-1 2.4-2.3-1.1-1.8-2.2-2.3l-.7-.3c-1.4-.6-2.6-1.3-2.6-3s1.6-3 3.3-3 2.4.7 3.1 1.8l-1.1.7ZM149.8 45.5h-1.3V34.9h-2.9v-1.2h7.1v1.2h-2.9zM154.1 33.7h6.1v1.2h-4.8v3.5h4.7v1.2h-4.7v4.6h4.8v1.2h-6.1V33.6ZM164 33l4.3 9.9 4.3-9.9 2.4 12.4h-1.3l-1.5-8-3.8 8.4-3.8-8.4-1.5 8h-1.3l2.4-12.4ZM178.6 41.1v1.2h-3.2v-1.2zM185.2 36c-.5-.8-1-1.3-2-1.3s-2 .7-2 1.8 1.1 1.5 1.9 1.8l.8.3c1.5.7 2.8 1.4 2.8 3.3s-1.7 3.6-3.7 3.6-3.3-1.2-3.7-3l1.3-.4c.2 1.2 1.1 2.2 2.4 2.2s2.4-1 2.4-2.3-1.1-1.8-2.2-2.3l-.7-.3c-1.4-.6-2.6-1.3-2.6-3s1.6-3 3.3-3 2.4.7 3.1 1.8l-1.1.7ZM188.6 33.7h6.1v1.2h-4.8v3.5h4.7v1.2h-4.7v4.6h4.8v1.2h-6.1V33.6ZM198.3 45.5H197V33.7h1.7c2.2 0 4.3.6 4.3 3.2s-1.1 3.1-3 3.2l3.8 5.3h-1.6l-3.6-5.2h-.3v5.2Zm0-6.3h.4c1.5 0 3-.3 3-2.1s-1.4-2.1-3-2.1h-.4zM209.2 42.7l3.4-9h1.4l-4.8 12.5-4.8-12.5h1.4zM216.6 45.5h-1.3V33.7h1.3zM228 36.3c-.9-1-2.2-1.6-3.6-1.6-2.6 0-4.8 2.3-4.8 4.9s2.2 4.9 4.8 4.9 2.6-.6 3.6-1.6v1.6c-1 .7-2.3 1.2-3.5 1.2-3.3 0-6.2-2.7-6.2-6s2.8-6.1 6.2-6.1 2.5.4 3.5 1.2v1.6ZM230.3 33.7h6.1v1.2h-4.8v3.5h4.7v1.2h-4.7v4.6h4.8v1.2h-6.1V33.6Z" class="cls-2"/></svg>
